<svg xmlns="http://www.w3.org/2000/svg" width="16" height="16" viewBox="0 0 16 16">
    <path d="M7.94,15.15a6.84,6.84,0,1,1,6.85-6.84A6.85,6.85,0,0,1,7.94,15.15Zm0-12.68a5.84,5.84,0,1,0,5.85,5.84A5.85,5.85,0,0,0,7.94,2.47Z" fill="#232323"/>
    <path d="M1.5,3.69a.5.5,0,0,1-.4-.8,8.18,8.18,0,0,1,1.82-1.8.49.49,0,0,1,.69.12.5.5,0,0,1-.11.7A7.05,7.05,0,0,0,1.9,3.49.49.49,0,0,1,1.5,3.69Z" fill="#232323"/>
    <path d="M14.65,3.76a.51.51,0,0,1-.41-.2A7.22,7.22,0,0,0,12.65,2a.5.5,0,0,1-.12-.7.51.51,0,0,1,.7-.11A8,8,0,0,1,15.05,3a.51.51,0,0,1-.11.7A.52.52,0,0,1,14.65,3.76Z" fill="#232323"/>
    <path d="M10,11a.5.5,0,0,1-.35-.15L7.59,8.76a.51.51,0,0,1-.15-.35l0-3.94A.51.51,0,0,1,8,4H8a.51.51,0,0,1,.5.51l0,3.72,1.91,1.91a.5.5,0,0,1,0,.7A.51.51,0,0,1,10,11Z" fill="#232323"/>
</svg>
