<svg xmlns="http://www.w3.org/2000/svg" width="20" height="20" viewBox="0 0 20 20">
  <path d="M11.26,6.46c-1.85.07-6.43.59-6.43,4.46,0,4.15,5.25,4.32,7,1.64a17.8,17.8,0,0,0,1.72,1.77l2.16-2.12s-1.23-1-1.23-2V4.62c0-1-.93-3.12-4.26-3.12s-5.11,2.09-5.11,4l2.79.26A2.35,2.35,0,0,1,9.91,3.84c1.55,0,1.35,1.13,1.35,2.62Zm0,3.29c0,3-3.2,2.58-3.2.66s1.92-2.16,3.2-2.2ZM16.42,16A9.22,9.22,0,0,1,9.8,18.5a11.15,11.15,0,0,1-7.93-3.83c-.26-.29,0-.43.21-.32C4.86,16,9.2,18.82,16.21,15.5,16.5,15.36,16.72,15.58,16.42,16Zm1.51.08a3.32,3.32,0,0,1-.8,1.18c-.21.17-.36.1-.25-.15s.73-1.76.48-2.08-1.4-.17-1.82-.13-.49.08-.53,0,.82-.58,1.42-.66,1.56,0,1.75.22A2.75,2.75,0,0,1,17.93,16Z" fill="#fff"/>
</svg>
