<svg xmlns="http://www.w3.org/2000/svg" width="125" height="26" viewBox="0 0 125 26">
    <path d="M3.56,14.23,2.19,15.66v4.5H0V2H2.19V13l1.17-1.41,4-4.2H10L5,12.71l5.56,7.45H8Z" fill="#fff"/>
    <path d="M12.27,4a1.32,1.32,0,0,1,.32-.89,1.21,1.21,0,0,1,1-.37,1.21,1.21,0,0,1,1,.37,1.26,1.26,0,0,1,.33.89,1.26,1.26,0,0,1-.33.89,1.27,1.27,0,0,1-1,.36,1.27,1.27,0,0,1-1-.36A1.32,1.32,0,0,1,12.27,4Zm2.36,16.19H12.45V7.37h2.18Z" fill="#fff"/>
    <path d="M21.1,4.27v3.1h2.39V9.06H21.1V17a1.74,1.74,0,0,0,.32,1.15,1.34,1.34,0,0,0,1.09.39,5.62,5.62,0,0,0,1-.15v1.77a6.8,6.8,0,0,1-1.68.23,2.72,2.72,0,0,1-2.21-.88A3.82,3.82,0,0,1,18.91,17V9.06H16.58V7.37h2.33V4.27Z" fill="#fff"/>
    <path d="M31.17,18.61a3.15,3.15,0,0,0,2-.71,2.46,2.46,0,0,0,1-1.77h2.07a4,4,0,0,1-.75,2.09,5,5,0,0,1-1.87,1.58A5.68,5.68,0,0,1,27,18.65a6.93,6.93,0,0,1-1.55-4.77v-.37a7.76,7.76,0,0,1,.69-3.32,5.27,5.27,0,0,1,2-2.26,5.63,5.63,0,0,1,3-.8,5.14,5.14,0,0,1,3.57,1.29,4.57,4.57,0,0,1,1.52,3.34h-2a3,3,0,0,0-.94-2A2.91,2.91,0,0,0,31.16,9a3.06,3.06,0,0,0-2.58,1.2,5.53,5.53,0,0,0-.92,3.47V14a5.47,5.47,0,0,0,.91,3.4A3.07,3.07,0,0,0,31.17,18.61Z" fill="#fff"/>
    <path d="M40.9,8.91a4.64,4.64,0,0,1,3.78-1.78c2.7,0,4.07,1.52,4.09,4.57v8.46H46.58V11.69a2.84,2.84,0,0,0-.63-2A2.51,2.51,0,0,0,44,9a3.12,3.12,0,0,0-1.87.56A4,4,0,0,0,40.9,11v9.12H38.71V2H40.9Z" fill="#fff"/>
    <path d="M57.35,20.39a5.56,5.56,0,0,1-4.23-1.71,6.27,6.27,0,0,1-1.63-4.56v-.41a7.64,7.64,0,0,1,.73-3.39,5.6,5.6,0,0,1,2-2.34,5,5,0,0,1,2.83-.85,4.83,4.83,0,0,1,4,1.64,7.17,7.17,0,0,1,1.38,4.71v.91h-8.7a4.55,4.55,0,0,0,1.1,3.05,3.45,3.45,0,0,0,2.69,1.17,3.77,3.77,0,0,0,2-.48,4.69,4.69,0,0,0,1.41-1.25l1.33,1A5.35,5.35,0,0,1,57.35,20.39ZM57.08,8.93a2.91,2.91,0,0,0-2.22,1,4.64,4.64,0,0,0-1.11,2.7h6.4v-.16a4.19,4.19,0,0,0-.89-2.59A2.76,2.76,0,0,0,57.08,8.93Z" fill="#fff"/>
    <path d="M66.94,7.37,67,9a4.67,4.67,0,0,1,3.83-1.84q4,0,4.09,4.57v8.46H72.74v-8.5a3,3,0,0,0-.63-2A2.55,2.55,0,0,0,70.18,9a3.12,3.12,0,0,0-1.87.56A3.86,3.86,0,0,0,67.06,11v9.12H64.87V7.37Z" fill="#fff"/>
    <path d="M77.85,13.64A7.69,7.69,0,0,1,79.18,8.9a4.28,4.28,0,0,1,3.61-1.77,4.46,4.46,0,0,1,3.95,2V2h1.4V20.16H86.82l-.06-1.71a4.52,4.52,0,0,1-4,1.94,4.27,4.27,0,0,1-3.57-1.78,7.73,7.73,0,0,1-1.35-4.8Zm1.43.25a6.66,6.66,0,0,0,1,3.86A3.19,3.19,0,0,0,83,19.16a3.82,3.82,0,0,0,3.71-2.3v-6A3.78,3.78,0,0,0,83,8.37a3.22,3.22,0,0,0-2.78,1.4A7.15,7.15,0,0,0,79.28,13.89Z" fill="#fff"/>
    <path d="M99.94,20.16a6.74,6.74,0,0,1-.27-1.79,4.89,4.89,0,0,1-1.9,1.5,5.73,5.73,0,0,1-2.44.52,4.25,4.25,0,0,1-3-1,3.32,3.32,0,0,1-1.14-2.6,3.41,3.41,0,0,1,1.55-3,7.42,7.42,0,0,1,4.33-1.09h2.57V11.27a2.74,2.74,0,0,0-.85-2.16,3.49,3.49,0,0,0-2.46-.79,3.92,3.92,0,0,0-2.45.76,2.23,2.23,0,0,0-1,1.82H91.51a3.28,3.28,0,0,1,1.42-2.64,5.42,5.42,0,0,1,3.49-1.12A5,5,0,0,1,99.79,8.2a3.8,3.8,0,0,1,1.27,3v6.06a7.44,7.44,0,0,0,.39,2.77v.15Zm-4.44-1a4.71,4.71,0,0,0,2.5-.71,4,4,0,0,0,1.63-1.83V13.81h-2.5a6.27,6.27,0,0,0-3.31.77,2.34,2.34,0,0,0-1.2,2.07,2.29,2.29,0,0,0,.8,1.78,3,3,0,0,0,2.08.71Z" fill="#fff"/>
    <path d="M104.75,3.67A1,1,0,0,1,105,3a.93.93,0,0,1,.71-.28.93.93,0,0,1,1,.95.93.93,0,0,1-.26.67,1.08,1.08,0,0,1-1.43,0A.92.92,0,0,1,104.75,3.67Zm1.67,16.49H105V7.37h1.42Z" fill="#fff"/>
    <path d="M111.84,20.16h-1.41V2h1.41Z" fill="#fff"/>
    <path d="M119.74,18.12l3.74-10.75H125l-5.46,15-.28.66A3.44,3.44,0,0,1,116,25.32a3.92,3.92,0,0,1-1.08-.16V24l.73.07a2.6,2.6,0,0,0,1.68-.52,3.88,3.88,0,0,0,1.1-1.76l.62-1.73L114.22,7.37h1.55Z" fill="#fff"/>
</svg>
